PathFileType	4	(X/Y/Z)	Kaydara	
DataRate	CameraRate	NumFrames	NumMarkers	Units	OrigDataRate	OrigDataStartFrame	OrigNumFrames	
60.00	60.00	4	74	mm	60.00	404	98	
Frame#	Time	Y_rasi			Y_rpsi			Y_lpsi			Y_fneck			Y_bneck			Y_fhead			Y_rhead			Y_rshld			Y_relbtop			Y_relbext			Y_relblow			Y_rwrext			Y_rwrtop			Y_rwrlow			Y_lshld			Y_lelbext			Y_lelblow			Y_lelbtop			Y_lwrext			Y_lwrtop			Y_lwrlow			Y_rtopleg			Y_ltopleg			Y_rkneefr			Y_rkneebk			Y_rkneeis			Y_lkneefr			Y_lknssbk			Y_lkneeis			Y_rankfr			Y_rankis			Y_rankbk			Y_lankfr			Y_lankbk			Y_lankis			Y_lhead			Y_lasi			D_rpsi			D_lpsi			D_fneck			D_bneck			D_fhead			D_rhead			D_lhead			D_rshld			D_relbtop			D_relbext			D_relblow			D_rwrext			D_rwrtop			D_rwrlow			D_lshld			D_lelbext			D_lelblow			D_lelbtop			D_lwrext			D_lwrtop			D_lwrlow			D_rtopleg			D_ltopleg			D_rkneefr			D_rkneebk			D_rkneeis			D_lkneefr			D_lknssbk			D_lkneeis			D_rankfr			D_rankis			D_rankbk			D_lankfr			D_lankbk			D_lankis			D_lasi			D_rasi			
		X1	Y1	Z1	X2	Y2	Z2	X3	Y3	Z3	X4	Y4	Z4	X5	Y5	Z5	X6	Y6	Z6	X7	Y7	Z7	X8	Y8	Z8	X9	Y9	Z9	X10	Y10	Z10	X11	Y11	Z11	X12	Y12	Z12	X13	Y13	Z13	X14	Y14	Z14	X15	Y15	Z15	X16	Y16	Z16	X17	Y17	Z17	X18	Y18	Z18	X19	Y19	Z19	X20	Y20	Z20	X21	Y21	Z21	X22	Y22	Z22	X23	Y23	Z23	X24	Y24	Z24	X25	Y25	Z25	X26	Y26	Z26	X27	Y27	Z27	X28	Y28	Z28	X29	Y29	Z29	X30	Y30	Z30	X31	Y31	Z31	X32	Y32	Z32	X33	Y33	Z33	X34	Y34	Z34	X35	Y35	Z35	X36	Y36	Z36	X37	Y37	Z37	X38	Y38	Z38	X39	Y39	Z39	X40	Y40	Z40	X41	Y41	Z41	X42	Y42	Z42	X43	Y43	Z43	X44	Y44	Z44	X45	Y45	Z45	X46	Y46	Z46	X47	Y47	Z47	X48	Y48	Z48	X49	Y49	Z49	X50	Y50	Z50	X51	Y51	Z51	X52	Y52	Z52	X53	Y53	Z53	X54	Y54	Z54	X55	Y55	Z55	X56	Y56	Z56	X57	Y57	Z57	X58	Y58	Z58	X59	Y59	Z59	X60	Y60	Z60	X61	Y61	Z61	X62	Y62	Z62	X63	Y63	Z63	X64	Y64	Z64	X65	Y65	Z65	X66	Y66	Z66	X67	Y67	Z67	X68	Y68	Z68	X69	Y69	Z69	X70	Y70	Z70	X71	Y71	Z71	X72	Y72	Z72	X73	Y73	Z73	X74	Y74	Z74	

37	6.717	-571.76460	1087.27333	-128.01600	-563.71479	1073.59474	-307.82156	-339.72527	1061.33568	-233.11779	-483.13690	1435.58594	-145.68651	-397.46841	1483.30170	-224.17730	-525.03559	1641.60919	-82.83323	-488.98609	1579.26407	-246.96911	-618.70247	1426.65771	-275.70904	-666.76727	1116.11816	-333.78834	-669.70596	1138.63182	-388.26004	-603.02605	1115.83153	-385.74738	-703.57574	851.18813	-367.82661	-739.94064	863.83125	-349.61201	-730.42709	871.43631	-306.18937	-262.36319	1384.28314	-97.46053	-169.42818	1086.42838	-157.55672	-220.03534	1072.45323	-186.63006	-210.88709	1080.68214	-104.43106	-178.16324	824.60785	-142.21707	-170.54668	826.52512	-99.25356	-214.27530	832.06604	-86.41243	-639.63184	915.71121	-272.78372	-305.96386	905.42007	-126.73976	-643.78120	412.19856	-278.24133	-623.29906	457.57545	-353.42220	-548.41064	419.94164	-269.23077	-343.97583	475.03105	-113.83563	-281.44409	496.09798	-207.06591	-401.81396	468.41305	-191.31189	-633.07751	141.39546	-329.04915	-561.35204	135.27466	-342.39082	-603.99273	137.01424	-395.10838	-277.75045	132.57955	-169.48103	-261.63792	131.81921	-238.17760	-334.24599	125.90700	-206.11034	-374.26762	1567.80014	-146.95623	-422.06429	1073.95790	-78.88209	-910.27603	1174.74144	627.12566	-1060.61073	1193.53294	534.06971	-895.90225	1616.32507	504.97765	-979.93088	1657.56012	587.13245	-873.42125	1805.33691	387.78053	-892.90054	1808.06961	566.46881	-1020.57961	1797.24167	482.44759	-784.45770	1571.86386	623.82099	-765.37621	1202.66273	610.09666	-713.39066	1213.03917	651.68129	-780.28206	1201.25244	693.46420	-702.01271	922.84866	579.18526	-664.73297	935.14725	563.38982	-673.79845	955.43472	520.68165	-1130.04616	1569.13116	454.51286	-1146.86485	1197.94907	379.65687	-1123.40714	1175.50255	450.06035	-1083.50235	1205.53268	380.68634	-1081.81763	953.86719	332.92294	-1059.15016	974.89952	299.41254	-1019.91486	976.47499	325.18475	-799.64653	1032.93564	606.43394	-1096.31790	1035.97351	415.44647	-817.37846	559.06910	497.40314	-819.02550	559.46888	609.27296	-925.96680	549.10149	542.16133	-996.38435	472.32948	374.95411	-1082.90977	519.10149	431.65398	-992.06375	499.80545	488.46493	-830.93430	191.06304	556.03199	-907.40967	187.18472	543.80634	-877.67441	181.67782	624.24530	-1053.52310	164.37763	414.50008	-1073.00514	156.95737	490.68066	-989.92027	164.63133	447.08218	-986.19743	1198.94203	388.70857	-805.06355	1185.07797	487.39414 
38	6.733	-570.19581	1087.07565	-128.62521	-562.57328	1073.79120	-308.36840	-338.10650	1061.80641	-234.39835	-482.63325	1435.46936	-145.17926	-396.89388	1483.61282	-223.55362	-525.18234	1641.44516	-81.81607	-488.78838	1579.25873	-246.12644	-618.08079	1426.71143	-275.35669	-664.63913	1116.20094	-333.66173	-667.71141	1138.57666	-388.23597	-600.92102	1116.11679	-385.73055	-701.40648	851.54892	-366.42990	-737.61391	864.06311	-348.12786	-728.14796	871.93428	-304.74806	-261.84975	1384.48288	-97.09260	-169.31019	1086.56670	-158.72745	-220.21889	1072.86507	-187.62564	-211.02028	1080.82275	-105.74091	-179.23996	824.72740	-143.78953	-172.23476	826.30287	-100.31057	-214.96655	832.08023	-88.24052	-638.31356	915.78743	-273.28659	-304.01407	905.59212	-128.31243	-643.53600	412.03964	-277.70254	-622.95010	457.34806	-353.01453	-547.84302	419.80209	-268.87697	-342.92549	475.06680	-114.30616	-280.61420	495.99560	-207.76445	-400.17582	468.54183	-191.82907	-632.93362	141.35399	-328.99990	-561.40671	135.13701	-342.23877	-603.89122	137.02457	-394.99706	-277.49468	132.53009	-169.64771	-261.41712	131.68098	-238.29443	-334.00711	125.95479	-206.26499	-374.09836	1567.96967	-145.88172	-420.24738	1073.84880	-79.37901	-912.04895	1174.87999	626.59325	-1061.94595	1193.62335	532.80495	-897.40417	1616.41418	503.39371	-981.60454	1657.72064	585.51472	-875.42915	1805.75470	386.09097	-894.69437	1808.44055	564.71546	-1022.46780	1797.18063	481.12534	-786.31905	1571.82175	623.04752	-765.73647	1202.36656	608.44040	-712.51656	1213.04253	648.15598	-777.75688	1200.86807	692.14806	-701.77719	922.49077	574.73343	-665.64163	935.59425	557.40940	-678.05374	955.33730	515.40524	-1131.07071	1568.87253	452.54040	-1147.85629	1197.68738	378.26611	-1124.85916	1175.51361	448.92437	-1084.47235	1205.00046	379.04316	-1083.56827	953.28758	332.22950	-1060.58731	974.10484	298.83604	-1021.32286	975.94299	324.42902	-801.41563	1033.13805	606.74656	-1096.68839	1036.12328	414.17084	-818.37997	559.12418	497.91290	-820.48805	559.60686	609.91936	-926.97731	549.04808	542.26681	-997.42203	472.42939	376.32683	-1084.23340	519.20212	432.79472	-993.68225	500.10986	490.17086	-831.36787	191.22217	556.24851	-907.70988	187.17627	543.75343	-878.10883	181.63412	624.21532	-1053.74527	164.38303	414.71718	-1073.34015	156.65756	490.84255	-990.21980	164.73387	447.56588	-986.47987	1198.71574	387.79728	-805.98083	1185.02914	487.46460 
39	6.750	-568.65189	1086.83083	-129.12918	-561.43639	1073.94058	-308.84581	-336.70990	1062.05482	-235.46764	-482.07695	1435.39566	-144.55377	-396.45832	1483.79105	-222.94680	-525.14668	1641.39053	-81.26127	-488.58734	1579.18900	-245.49704	-617.44850	1426.69235	-274.89038	-662.66708	1115.99464	-333.29815	-665.81223	1138.33450	-387.95876	-598.96961	1116.19919	-385.72865	-699.61693	851.62514	-364.97795	-735.64590	864.18655	-346.27922	-725.90485	872.36305	-302.94394	-261.07016	1384.57291	-96.89850	-169.54556	1086.49010	-159.38376	-220.15154	1073.09258	-188.62576	-211.07302	1080.81573	-106.49273	-180.70898	824.69543	-144.61720	-173.82242	826.14624	-101.21181	-217.95231	831.52885	-90.68746	-636.75110	915.71152	-273.93480	-302.66569	905.60013	-129.20904	-642.91313	412.03735	-277.44728	-622.38426	457.13543	-352.81479	-547.22023	419.71752	-268.80959	-341.88614	474.91333	-114.93432	-279.84552	495.77972	-208.22206	-399.20441	468.68660	-192.41066	-632.78496	141.33000	-328.89885	-561.45607	134.95706	-342.15851	-603.73966	137.07191	-394.98241	-277.26545	132.50349	-169.81020	-261.18525	131.43458	-238.36662	-333.70068	125.95302	-206.41069	-373.93360	1568.13751	-145.04561	-418.62133	1073.81241	-79.94361	-913.64571	1174.92241	626.27758	-1063.05313	1193.73924	531.52195	-898.70659	1616.50635	501.95789	-983.05695	1657.90985	583.80707	-877.41264	1806.28403	384.42768	-896.13228	1808.89740	563.26309	-1024.19289	1797.17972	479.79469	-788.21960	1571.81122	622.35142	-765.84488	1202.12547	606.72070	-711.22337	1213.25996	644.32831	-775.19920	1200.48302	690.58487	-700.59486	922.66510	572.10545	-665.80849	936.38855	550.76839	-682.77000	955.32883	509.82983	-1132.20505	1568.68866	450.56011	-1148.79234	1197.44156	376.96041	-1125.78270	1175.42053	447.64519	-1085.40298	1204.55833	377.75311	-1085.06325	952.80678	331.45016	-1061.98341	973.49136	298.12054	-1022.74223	975.16716	323.64388	-803.06274	1033.36861	607.05025	-1097.26517	1036.15044	412.98607	-819.15672	559.28391	498.08208	-821.64055	559.71638	610.04620	-928.06816	549.04423	542.20299	-998.28072	472.40028	378.11291	-1085.47539	519.29623	434.01176	-995.17914	500.29446	491.77006	-831.78009	191.41233	556.36734	-908.03032	187.21142	543.67218	-878.46565	181.63176	624.10782	-1053.90587	164.38156	414.98573	-1073.53020	156.29798	491.06781	-990.41916	164.79002	448.03143	-986.88721	1198.40286	386.73794	-807.16911	1184.93942	487.68421 
40	6.767	-567.18987	1086.53526	-129.58626	-560.20973	1074.04556	-309.28579	-335.52681	1062.43629	-235.95100	-481.66538	1435.36087	-143.99008	-396.06499	1484.00436	-222.42771	-524.93492	1641.45096	-80.91776	-488.32832	1579.06036	-244.93217	-616.94530	1426.51093	-274.31957	-660.79475	1115.69153	-332.81944	-664.21425	1137.97302	-387.51564	-597.32216	1116.01807	-385.48115	-697.85629	851.50726	-362.92603	-733.99185	864.38858	-344.24839	-723.57872	872.59659	-300.62628	-260.21626	1384.59625	-96.75457	-169.54567	1086.24268	-159.98540	-220.14076	1073.11462	-189.34803	-211.06718	1080.87318	-107.12748	-182.71772	824.53545	-144.59700	-176.06243	825.92941	-101.18116	-220.39738	831.78596	-91.35514	-635.22968	915.65529	-274.68130	-300.86132	905.66269	-130.20436	-642.32384	411.84235	-277.53017	-621.73790	456.98372	-352.88353	-546.78108	419.45702	-268.79028	-340.52002	475.17143	-115.60706	-278.18310	495.84721	-209.24961	-397.98901	468.71258	-193.06688	-632.61700	141.36602	-328.83881	-561.26007	134.85898	-342.18586	-603.64727	137.08582	-395.03635	-277.06120	132.47197	-169.85086	-260.87173	131.19833	-238.50737	-333.67733	126.17388	-206.83746	-373.73451	1568.30170	-144.65680	-417.44339	1073.50327	-81.36125	-915.39398	1175.13405	625.96142	-1064.30077	1193.77640	530.19592	-900.14870	1616.57562	500.29991	-984.57062	1658.08395	582.19013	-879.07310	1806.81229	382.97848	-897.66998	1809.07471	561.78215	-1025.86266	1797.12952	478.34438	-789.91623	1571.76468	621.59100	-765.55183	1201.94168	604.81537	-709.83086	1213.48770	640.65514	-772.32056	1200.16441	688.86185	-697.81067	923.33450	568.12237	-666.39938	937.48604	544.04194	-687.88643	955.42320	504.40174	-1133.30238	1568.55179	448.56945	-1149.82101	1197.25685	375.57930	-1126.61789	1175.30746	446.36555	-1086.45889	1204.38332	376.53217	-1086.45630	952.54356	330.62874	-1063.26035	973.05321	297.23690	-1024.12880	974.88724	322.31598	-804.54453	1033.98117	606.89659	-1097.79282	1036.15295	411.91711	-820.03288	559.40380	498.37284	-822.89352	559.76898	610.37483	-928.90862	548.90778	541.95618	-999.28001	472.33974	379.88777	-1086.69716	519.25220	435.33257	-996.54602	500.33222	493.48923	-832.06993	191.57040	556.42616	-908.35861	187.23063	543.53371	-878.96309	181.69926	624.02489	-1054.03549	164.31568	415.37945	-1073.52150	155.89719	491.36299	-990.62721	164.79580	448.55278	-987.29942	1198.16628	385.90515	-808.30780	1184.90341	487.56466 
